#!OML:ASF F:\VICON\USERDATA\INSTALL\Justin_Nancy\Justin_Nancy.ASF
:FULLY-SPECIFIED
:DEGREES
51
root -9.51404 17.2812 -25.3375 0.0731975 -1.04496 5.73244
lowerback 5.24725 -2.5112 -6.74104
upperback 0.370408 -3.68785 2.27242
thorax -1.98158 -1.78052 6.3947
lowerneck -13.7734 -1.24286 -10.5348
upperneck 21.8285 -0.439721 5.05181
head 9.17117 -0.535378 3.45449
rclavicle -4.2043e-014 7.95139e-015
rhumerus -37.029 -17.0721 -74.5552
rradius 27.2068
rwrist 9.78216
rhand -12.5316 16.8549
rfingers 7.12502
rthumb 13.5447 -12.6846
lclavicle -4.2043e-014 7.95139e-015
lhumerus -27.551 9.81687 81.1665
lradius 34.308
lwrist -9.17771
lhand -17.3723 25.6193
lfingers 7.12502
lthumb 8.87607 55.4127
rfemur -26.4494 0.399688 16.5371
rtibia 20.6174
rfoot -3.29566 -9.04479
rtoes 3.58416
lfemur 9.27777 -3.16414 -29.8847
ltibia 21.9717
lfoot -15.0151 -3.63292
ltoes -12.483
52
root -9.5398 17.304 -25.1705 0.169548 -1.06206 5.54705
lowerback 5.20407 -2.35772 -6.47317
upperback 0.429965 -3.46426 2.2283
thorax -1.9495 -1.67383 6.1805
lowerneck -14.4824 -1.4783 -10.2961
upperneck 22.0326 -0.739896 5.02211
head 9.39953 -0.656957 3.3768
rclavicle 2.13694e-014 3.97569e-015
rhumerus -37.0963 -17.636 -74.5329
rradius 27.5613
rwrist 9.89339
rhand -12.6674 16.5663
rfingers 7.12502
rthumb 13.4138 -12.9818
lclavicle 2.13694e-014 3.97569e-015
lhumerus -27.2828 9.3068 81.3444
lradius 33.8483
lwrist -8.20397
lhand -18.006 23.82
lfingers 7.12502
lthumb 8.26455 53.6384
rfemur -26.4015 0.770497 16.7057
rtibia 21.0548
rfoot -2.37633 -8.77228
rtoes 4.7876
lfemur 9.34789 -3.48162 -29.6884
ltibia 22.5521
lfoot -14.1873 -3.75353
ltoes -13.648
53
root -9.56994 17.3255 -25.0016 0.103468 -1.08925 5.28637
lowerback 5.30818 -2.16802 -6.17193
upperback 0.49192 -3.19929 2.19259
thorax -2.00257 -1.5432 5.96197
lowerneck -14.9918 -1.74637 -9.97718
upperneck 22.2995 -1.10023 4.85106
head 9.61766 -0.817896 3.22617
rclavicle -1.59028e-014 -1.66979e-014
rhumerus -37.3562 -18.7082 -74.0667
rradius 27.6776
rwrist 10.5274
rhand -11.9621 16.5164
rfingers 7.12502
rthumb 14.0935 -12.9857
lclavicle -1.59028e-014 -1.66979e-014
lhumerus -27.1077 8.75718 81.5129
lradius 33.4824
lwrist -7.4701
lhand -17.3983 25.0024
lfingers 7.12502
lthumb 8.85098 54.7968
rfemur -26.0739 1.38535 16.8498
rtibia 21.2418
rfoot -1.53016 -8.47602
rtoes 6.51683
lfemur 9.5264 -3.84764 -29.4181
ltibia 23.2693
lfoot -13.3165 -3.903
ltoes -13.8815
54
root -9.59575 17.3435 -24.8282 0.119958 -1.24897 4.89474
lowerback 5.19563 -2.00137 -5.66563
upperback 0.570685 -2.94003 2.18406
thorax -1.92189 -1.42243 5.6435
lowerneck -15.3865 -1.88473 -9.81472
upperneck 22.4694 -1.31331 4.92424
head 9.76816 -0.894286 3.20248
rclavicle -1.49089e-014 -1.59028e-015
rhumerus -37.3863 -19.6767 -73.7402
rradius 27.5056
rwrist 10.5583
rhand -11.9132 16.6574
rfingers 7.12502
rthumb 14.1407 -12.8413
lclavicle -1.49089e-014 -1.59028e-015
lhumerus -26.933 8.70703 81.5057
lradius 33.2157
lwrist -8.16608
lhand -15.3824 28.4116
lfingers 7.12502
lthumb 10.7959 58.1142
rfemur -25.7295 1.89713 17.2072
rtibia 21.2327
rfoot -0.918726 -7.54879
rtoes 6.73466
lfemur 9.46792 -4.22145 -29.0583
ltibia 24.2519
lfoot -12.3848 -4.01174
ltoes -14.5376
55
root -9.61691 17.3616 -24.6588 0.109945 -1.3948 4.38676
lowerback 5.30742 -1.97504 -5.21975
upperback 0.384528 -2.8816 2.4134
thorax -2.1958 -1.38204 5.63904
lowerneck -15.3013 -1.82803 -9.92623
upperneck 22.8199 -1.2063 4.86995
head 9.86916 -0.869143 3.22252
rclavicle -8.24956e-015 4.53229e-014
rhumerus -37.6126 -19.2646 -73.7179
rradius 27.4613
rwrist 9.60718
rhand -12.2374 17.4955
rfingers 7.12502
rthumb 13.8282 -12.0249
lclavicle -8.24956e-015 4.53229e-014
lhumerus -27.5175 9.17429 81.584
lradius 33.1718
lwrist -8.68815
lhand -15.5724 27.7045
lfingers 7.12502
lthumb 10.6127 57.4165
rfemur -25.3039 2.12869 17.7841
rtibia 21.2585
rfoot -0.208606 -6.24919
rtoes 6.41278
lfemur 9.27113 -4.47444 -28.5391
ltibia 25.4832
lfoot -11.2963 -4.26996
ltoes -16.8093
